<svg xmlns="http://www.w3.org/2000/svg" viewBox="0 0 260 260" enable-background="new 0 0 260 260"><circle fill="#fff"/><g fill="#35b062"><path d="M130,260C58.3,260,0,201.7,0,130C0,58.3,58.3,0,130,0c71.7,0,130,58.3,130,130C260,201.7,201.7,260,130,260z
		 M130,4C60.5,4,4,60.5,4,130s56.5,126,126,126s126-56.5,126-126S199.5,4,130,4z"/><path d="m114.9 99.9c-.5 0-1 0-1.7.1s-1.4.1-2.2.1c-4.2.4-8.2 2.1-11.5 4.7-3.7 2.9-6.6 6.5-8.6 10.7v-15.4h-5.7v62.4h6v-39c2.9-10.6 12.6-18 23.6-18v-5.6h.1m37 62.7l26.2-62.4h-5.9l-23.3 56.4-23-56.4h-6.4l26.2 62.4h6.2"/></g></svg>
